<?xml version="1.0" encoding="UTF-8" standalone="no"?>
<!-- Created with Inkscape (http://www.inkscape.org/) -->

<svg
   width="117.58399mm"
   height="63.402565mm"
   viewBox="0 0 117.58399 63.402565"
   version="1.1"
   id="svg960"
   inkscape:version="1.1.2 (0a00cf5339, 2022-02-04)"
   sodipodi:docname="book-icon-yellow.svg"
   xmlns:inkscape="http://www.inkscape.org/namespaces/inkscape"
   xmlns:sodipodi="http://sodipodi.sourceforge.net/DTD/sodipodi-0.dtd"
   xmlns="http://www.w3.org/2000/svg"
   xmlns:svg="http://www.w3.org/2000/svg">
  <sodipodi:namedview
     id="namedview962"
     pagecolor="#ffffff"
     bordercolor="#666666"
     borderopacity="1.0"
     inkscape:pageshadow="2"
     inkscape:pageopacity="0.0"
     inkscape:pagecheckerboard="0"
     inkscape:document-units="mm"
     showgrid="false"
     inkscape:zoom="0.65512531"
     inkscape:cx="219.80528"
     inkscape:cy="45.792766"
     inkscape:window-width="1366"
     inkscape:window-height="700"
     inkscape:window-x="0"
     inkscape:window-y="0"
     inkscape:window-maximized="1"
     inkscape:current-layer="layer1" />
  <defs
     id="defs957" />
  <g
     inkscape:label="Layer 1"
     inkscape:groupmode="layer"
     id="layer1"
     transform="translate(-70.481271,-136.70789)">
    <path
       id="path24244"
       style="color:#000000;fill:#f5c400;stroke-width:0.738297;stroke-linecap:round;stroke-linejoin:round;-inkscape-stroke:none;paint-order:fill markers stroke;fill-opacity:1"
       d="m 113.37594,184.35618 c -0.53083,0.002 -1.07227,0.0271 -1.62768,0.0763 -5.94536,0.52838 -14.847205,4.4573 -22.907894,6.01125 -6.618195,1.27576 -11.861792,0.54581 -16.43394,-0.46299 l -1.803448,6.07061 c -0.406596,1.36934 0.230601,2.56901 1.538065,2.86274 4.631922,1.03788 9.957415,1.8139 16.699323,0.51429 8.060689,-1.55395 16.962534,-5.48286 22.907894,-6.01125 0.55541,-0.0492 1.09685,-0.0738 1.62768,-0.0763 4.24059,-0.0148 7.90588,1.42243 11.88806,3.36856 0.9208,0.45043 2.0236,0.40113 2.90654,-0.12889 0.48459,-0.29107 0.86193,-0.70293 1.10273,-1.17868 0.2408,0.47575 0.61816,0.88762 1.10275,1.17868 0.8829,0.53002 1.98572,0.57932 2.90652,0.12889 3.98218,-1.94613 7.64745,-3.38332 11.88808,-3.36856 0.53081,0.002 1.07225,0.0271 1.62766,0.0763 5.94538,0.52839 14.8472,4.4573 22.90789,6.01125 6.74193,1.29961 12.06739,0.52359 16.69934,-0.51429 1.30743,-0.29373 1.94462,-1.4934 1.53806,-2.86274 l -1.80345,-6.07061 c -4.57217,1.0088 -9.81575,1.73875 -16.43395,0.46299 -8.06069,-1.55395 -16.96253,-5.48287 -22.90789,-6.01125 -0.55541,-0.0492 -1.09685,-0.0739 -1.62766,-0.0763 -4.24063,-0.0148 -7.9059,1.42243 -11.88808,3.36856 -0.9208,0.45043 -2.02364,0.40112 -2.90652,-0.12889 -0.48459,-0.29107 -0.86195,-0.70293 -1.10275,-1.17868 -0.2408,0.47576 -0.61814,0.8876 -1.10273,1.17868 -0.88294,0.53001 -1.98574,0.57932 -2.90654,0.12889 -3.98218,-1.94613 -7.64745,-3.38332 -11.88806,-3.36856 z"
       inkscape:export-filename="/home/raul6174/yellow-book-icon.png"
       inkscape:export-xdpi="192"
       inkscape:export-ydpi="192" />
    <path
       id="path20221"
       style="color:#000000;fill:#f5c400;fill-opacity:1;stroke-width:0.738297;stroke-linecap:round;stroke-linejoin:round;-inkscape-stroke:none;paint-order:fill markers stroke"
       d="m 117.09681,136.70798 c -0.52816,0.002 -1.06832,0.0195 -1.6184,0.0564 -5.88955,0.39464 -12.52661,2.70334 -17.492044,3.42452 -4.127005,0.59894 -7.337693,0.26414 -10.643547,-0.27983 -0.637128,-0.10502 -1.366663,0.0173 -1.988498,0.33241 -0.625157,0.31669 -1.076258,0.79512 -1.228395,1.30544 l -13.522948,45.51981 c -0.40659,1.36934 0.230601,2.56901 1.538065,2.86274 4.631922,1.03788 9.957398,1.8139 16.699323,0.51429 8.060689,-1.55395 16.962534,-5.48287 22.907894,-6.01125 0.55541,-0.0492 1.09685,-0.0738 1.62768,-0.0763 4.24061,-0.0148 7.90588,1.42243 11.88806,3.36856 0.9208,0.45043 2.0236,0.40112 2.90654,-0.12889 0.48459,-0.29108 0.86193,-0.70292 1.10273,-1.17868 0.2408,0.47575 0.61816,0.88761 1.10275,1.17868 0.88292,0.53001 1.98572,0.57932 2.90652,0.12889 3.98218,-1.94613 7.64745,-3.38332 11.88808,-3.36856 0.53081,0.002 1.07225,0.0271 1.62766,0.0763 5.94536,0.52838 14.8472,4.4573 22.90789,6.01125 6.74193,1.29961 12.06741,0.52359 16.69934,-0.51429 1.30746,-0.29373 1.94464,-1.4934 1.53806,-2.86274 l -13.52296,-45.51981 c -0.15213,-0.51032 -0.60322,-0.98875 -1.22839,-1.30544 -0.62184,-0.31506 -1.35137,-0.43743 -1.9885,-0.33241 -3.30585,0.54397 -6.51688,0.87877 -10.64388,0.27983 -4.96544,-0.72118 -11.60216,-3.02988 -17.49171,-3.42452 -0.55009,-0.0369 -1.09024,-0.0548 -1.6184,-0.0564 -4.23862,-0.0115 -7.76127,1.07319 -10.96283,2.23906 -0.64416,0.23463 -1.08907,0.67897 -1.21363,1.19182 -0.12456,-0.51285 -0.56945,-0.95719 -1.21363,-1.19182 -3.20155,-1.16587 -6.72421,-2.25055 -10.96283,-2.23906 z m -0.23792,3.24221 c 2.80958,-0.008 5.30254,0.68031 7.89289,1.58528 l -0.97401,39.36312 c -3.01752,-1.147 -6.27168,-2.00585 -9.99742,-1.99272 h -0.002 c -0.68229,0.003 -1.37901,0.0334 -2.09253,0.095 -7.6315,0.65965 -16.372773,4.54062 -22.883514,5.75982 -4.481779,0.83934 -8.069952,0.48893 -11.590408,-0.14118 l 10.927476,-41.00522 c 2.93315,0.35608 6.224591,0.4794 10.081863,-0.0933 6.106803,-0.9066 12.829863,-3.21368 17.388723,-3.52627 0.42651,-0.0287 0.8417,-0.0437 1.24829,-0.0445 z m 24.82842,0 c 0.40658,8.7e-4 0.82179,0.0158 1.2483,0.0445 4.55884,0.31259 11.28225,2.61967 17.38905,3.52627 3.85728,0.57268 7.14874,0.44936 10.08189,0.0933 l 10.92746,41.00522 c -3.52044,0.63011 -7.10899,0.98052 -11.59077,0.14118 -6.51072,-1.2192 -15.25165,-5.10017 -22.88316,-5.75982 -0.71352,-0.0615 -1.41022,-0.0917 -2.09252,-0.095 h -0.002 c -3.72574,-0.0131 -6.9799,0.84572 -9.99742,1.99272 l -0.97399,-39.36312 c 2.59033,-0.90497 5.08294,-1.59349 7.89254,-1.58528 z m -25.06874,2.84366 c -0.55075,0.002 -1.11337,0.0213 -1.68672,0.0615 -6.1407,0.42828 -13.07612,2.93904 -18.26212,3.72258 -1.96983,0.29783 -3.743104,0.38237 -5.419946,0.32986 l -0.894011,3.71665 c 2.00372,0.0542 4.16543,-0.05 6.529233,-0.41593 6.383174,-0.98866 13.414644,-3.50163 18.171464,-3.8413 0.44513,-0.032 0.87837,-0.0475 1.30289,-0.0483 1.49483,-0.005 2.90013,0.18835 4.27535,0.50751 l 0.18573,-3.68358 c -1.32408,-0.22152 -2.71768,-0.35304 -4.20187,-0.34894 z m 25.3094,0 c -1.48419,-0.004 -2.87815,0.12742 -4.20222,0.34894 l 0.18608,3.68358 c 1.37524,-0.31916 2.78054,-0.51244 4.27535,-0.50751 0.42452,8.7e-4 0.85743,0.0163 1.30255,0.0483 4.75682,0.33967 11.78864,2.85264 18.17182,3.8413 2.36379,0.36592 4.5255,0.47008 6.52922,0.41593 l -0.89435,-3.71665 c -1.67684,0.0525 -3.44978,-0.032 -5.41961,-0.32986 -5.186,-0.78354 -12.12143,-3.2943 -18.26212,-3.72258 -0.57334,-0.0402 -1.13597,-0.0598 -1.68672,-0.0615 z m -25.93389,7.94971 c -0.57998,0.002 -1.17276,0.0227 -1.77667,0.0678 -6.46822,0.47505 -13.79679,3.26083 -19.271121,4.13215 -2.080782,0.33147 -3.951437,0.425 -5.717962,0.36675 l -0.99598,4.13639 c 2.114672,0.0607 4.398619,-0.0556 6.897947,-0.46341 6.747256,-1.10106 14.184186,-3.89638 19.201446,-4.27461 0.46903,-0.0353 0.92614,-0.0526 1.37327,-0.0534 1.57586,-0.005 3.0567,0.20946 4.50502,0.5639 l 0.20736,-4.08933 c -1.3945,-0.24532 -2.86074,-0.39118 -4.42331,-0.38625 z m 26.55838,0 c -1.56257,-0.005 -3.02881,0.14093 -4.4233,0.38625 l 0.20737,4.08933 c 1.44829,-0.35444 2.92914,-0.56883 4.50502,-0.5639 0.44711,8.6e-4 0.90422,0.0181 1.37327,0.0534 5.01725,0.37823 12.45384,3.17355 19.20107,4.27461 2.49933,0.40777 4.78363,0.52413 6.8983,0.46341 l -0.99596,-4.13639 c -1.76654,0.0582 -3.63753,-0.0353 -5.71831,-0.36675 -5.47434,-0.87132 -12.80291,-3.6571 -19.27113,-4.13215 -0.6039,-0.0451 -1.19633,-0.0662 -1.77633,-0.0678 z m -27.25325,8.83625 c -0.61256,0.002 -1.23777,0.0263 -1.87556,0.0755 -6.83295,0.53002 -14.6007,3.63949 -20.398571,4.61338 -2.205022,0.37084 -4.18415,0.47523 -6.051677,0.41041 l -1.11544,4.63288 c 2.238895,0.0673 4.659176,-0.0632 7.311309,-0.52023 7.155829,-1.23397 15.047039,-4.36297 20.353959,-4.78551 0.49627,-0.0394 0.97989,-0.0581 1.45291,-0.0598 1.66556,-0.006 3.23013,0.23378 4.76148,0.63089 l 0.23071,-4.56674 c -1.4709,-0.27321 -3.01886,-0.43569 -4.66912,-0.43077 z m 27.94814,0 c -1.65028,-0.005 -3.19824,0.15756 -4.66912,0.43077 l 0.23071,4.56674 c 1.53135,-0.39711 3.09592,-0.63664 4.76146,-0.63089 0.47303,0.002 0.95665,0.0204 1.45293,0.0598 5.3069,0.42254 13.19812,3.55154 20.35394,4.78551 2.65213,0.457 5.07241,0.58751 7.31131,0.52023 l -1.11544,-4.63288 c -1.86753,0.0648 -3.84666,-0.0396 -6.05166,-0.41041 -5.79789,-0.97389 -13.56564,-4.08336 -20.39859,-4.61338 -0.63779,-0.0492 -1.263,-0.073 -1.87554,-0.0755 z m -28.72473,9.88053 c -0.64842,0.002 -1.3108,0.029 -1.98713,0.0848 -7.24087,0.59483 -15.504482,4.08832 -21.665758,5.18363 -2.343869,0.4168 -4.445779,0.5339 -6.426226,0.46087 l -1.257575,5.22476 c 2.37841,0.0763 4.95197,-0.0711 7.776823,-0.58722 7.61625,-1.39232 16.021996,-4.91888 21.654456,-5.39393 0.52683,-0.0443 1.03955,-0.0653 1.54114,-0.067 1.76721,-0.007 3.42545,0.26299 5.04849,0.70932 l 0.2592,-5.1319 c -1.55726,-0.30686 -3.1955,-0.48909 -4.94342,-0.48335 z m 29.5013,0 c -1.74792,-0.006 -3.38616,0.17649 -4.94342,0.48335 l 0.2592,5.1319 c 1.62304,-0.44633 3.2813,-0.71589 5.04849,-0.70932 0.50158,0.002 1.01431,0.0227 1.54116,0.067 5.63244,0.47505 14.03785,4.00161 21.65408,5.39393 2.82487,0.51607 5.39878,0.66352 7.7772,0.58722 l -1.25758,-5.22476 c -1.98046,0.073 -4.08271,-0.0441 -6.42658,-0.46087 -6.16127,-1.09531 -14.42455,-4.5888 -21.66542,-5.18363 -0.67631,-0.0558 -1.33871,-0.0823 -1.98713,-0.0848 z"
       inkscape:export-filename="/home/raul6174/yellow-book-icon.png"
       inkscape:export-xdpi="192"
       inkscape:export-ydpi="192" />
  </g>
</svg>
