<?xml version="1.0" encoding="UTF-8" standalone="no"?>
<!-- Created with Inkscape (http://www.inkscape.org/) -->

<svg
   id="svg5"
   version="1.1"
   viewBox="0 0 117.54027 117.77603"
   height="117.77603mm"
   width="117.54027mm"
   sodipodi:docname="esbozz-logo.svg"
   inkscape:version="1.1.2 (0a00cf5339, 2022-02-04)"
   inkscape:export-filename="/home/raul6174/bitmap.png"
   inkscape:export-xdpi="96"
   inkscape:export-ydpi="96"
   xmlns:inkscape="http://www.inkscape.org/namespaces/inkscape"
   xmlns:sodipodi="http://sodipodi.sourceforge.net/DTD/sodipodi-0.dtd"
   xmlns="http://www.w3.org/2000/svg"
   xmlns:svg="http://www.w3.org/2000/svg">
  <sodipodi:namedview
     id="namedview7"
     pagecolor="#ffffff"
     bordercolor="#666666"
     borderopacity="1.0"
     inkscape:pageshadow="2"
     inkscape:pageopacity="0.0"
     inkscape:pagecheckerboard="0"
     inkscape:document-units="px"
     showgrid="false"
     showguides="true"
     inkscape:guide-bbox="true"
     inkscape:zoom="0.36565037"
     inkscape:cx="335.01949"
     inkscape:cy="134.0078"
     inkscape:window-width="1366"
     inkscape:window-height="700"
     inkscape:window-x="0"
     inkscape:window-y="0"
     inkscape:window-maximized="1"
     inkscape:current-layer="layer1"
     fit-margin-top="0"
     fit-margin-left="0"
     fit-margin-right="0"
     fit-margin-bottom="0" />
  <defs
     id="defs2">
    <rect
       x="244.62854"
       y="883.52692"
       width="322.06683"
       height="108.29519"
       id="rect32757" />
    <inkscape:path-effect
       effect="bspline"
       id="path-effect27703"
       is_visible="true"
       lpeversion="1"
       weight="33.333333"
       steps="2"
       helper_size="0"
       apply_no_weight="true"
       apply_with_weight="true"
       only_selected="false" />
    <inkscape:path-effect
       effect="bspline"
       id="path-effect27560"
       is_visible="true"
       lpeversion="1"
       weight="33.333333"
       steps="2"
       helper_size="0"
       apply_no_weight="true"
       apply_with_weight="true"
       only_selected="false" />
    <inkscape:path-effect
       effect="bspline"
       id="path-effect27554"
       is_visible="true"
       lpeversion="1"
       weight="33.333333"
       steps="2"
       helper_size="0"
       apply_no_weight="true"
       apply_with_weight="true"
       only_selected="false" />
    <inkscape:path-effect
       effect="bspline"
       id="path-effect26774"
       is_visible="true"
       lpeversion="1"
       weight="33.333333"
       steps="2"
       helper_size="0"
       apply_no_weight="true"
       apply_with_weight="true"
       only_selected="false" />
    <inkscape:path-effect
       effect="bspline"
       id="path-effect26688"
       is_visible="true"
       lpeversion="1"
       weight="33.333333"
       steps="2"
       helper_size="0"
       apply_no_weight="true"
       apply_with_weight="true"
       only_selected="false" />
    <inkscape:path-effect
       effect="bspline"
       id="path-effect26009"
       is_visible="true"
       lpeversion="1"
       weight="33.333333"
       steps="2"
       helper_size="0"
       apply_no_weight="true"
       apply_with_weight="true"
       only_selected="false" />
    <inkscape:perspective
       sodipodi:type="inkscape:persp3d"
       inkscape:vp_x="0 : -30.723972 : 1"
       inkscape:vp_y="0 : 999.99996 : 0"
       inkscape:vp_z="210.00001 : -30.723972 : 1"
       inkscape:persp3d-origin="105.00001 : -80.22397 : 1"
       id="perspective21378" />
    <inkscape:path-effect
       effect="bspline"
       id="path-effect19781"
       is_visible="true"
       lpeversion="1"
       weight="33.333333"
       steps="2"
       helper_size="0"
       apply_no_weight="true"
       apply_with_weight="true"
       only_selected="false" />
    <inkscape:path-effect
       effect="bspline"
       id="path-effect18987"
       is_visible="true"
       lpeversion="1"
       weight="33.333333"
       steps="2"
       helper_size="0"
       apply_no_weight="true"
       apply_with_weight="true"
       only_selected="false" />
    <rect
       x="177.15617"
       y="445.39273"
       width="496.37805"
       height="126.5058"
       id="rect11495" />
    <rect
       x="181.90424"
       y="442.81439"
       width="416.38638"
       height="123.55771"
       id="rect7027" />
  </defs>
  <g
     inkscape:label="Layer 1"
     inkscape:groupmode="layer"
     id="layer1"
     transform="translate(-46.229866,-89.611989)">
    <text
       xml:space="preserve"
       transform="scale(0.26458333)"
       id="text7025"
       style="font-size:64px;line-height:1.25;font-family:sans-serif;white-space:pre;shape-inside:url(#rect7027)" />
    <rect
       style="fill:#102a71;fill-opacity:1;stroke:none;stroke-width:1.76995;stroke-linecap:round;stroke-linejoin:round;stroke-miterlimit:4;stroke-dasharray:none;stroke-opacity:1;paint-order:fill markers stroke"
       id="rect31100"
       width="80.051964"
       height="25.584997"
       x="64.974022"
       y="90.965279"
       inkscape:export-filename="/home/raul6174/logo-engsoc-fix.png"
       inkscape:export-xdpi="96"
       inkscape:export-ydpi="96" />
    <path
       id="rect956"
       style="fill:none;stroke:#102a71;stroke-width:2.70658;stroke-linecap:round;stroke-linejoin:round;stroke-opacity:1;paint-order:fill markers stroke"
       d="m 64.97402,90.965279 v 25.585001 h 80.05196 V 90.965279 Z m 0,58.431061 v 32.60369 0.0212 h 0.03514 l 40.02701,24.01352 39.9309,-24.01352 h 0.0589 v -0.0351 -5.3e-4 -32.58922 z"
       inkscape:export-filename="/home/raul6174/logo-engsoc-fix.png"
       inkscape:export-xdpi="96"
       inkscape:export-ydpi="96" />
    <g
       id="g28739"
       transform="matrix(0.90295904,0,0,0.90295904,12.09191,8.9588898)"
       style="stroke:none;stroke-width:0.586036;stroke-miterlimit:4;stroke-dasharray:none;stroke-opacity:1"
       inkscape:export-filename="/home/raul6174/logo-engsoc-fix.png"
       inkscape:export-xdpi="96"
       inkscape:export-ydpi="96">
      <rect
         style="fill:#ffffff;stroke:none;stroke-width:0.586036;stroke-linecap:round;stroke-linejoin:round;stroke-miterlimit:4;stroke-dasharray:none;stroke-opacity:1;paint-order:fill markers stroke"
         id="rect1971"
         width="38.968754"
         height="23.003"
         x="105.11971"
         y="93.479591" />
      <rect
         style="fill:#ff0000;stroke:none;stroke-width:0.586036;stroke-linecap:round;stroke-linejoin:round;stroke-miterlimit:4;stroke-dasharray:none;stroke-opacity:1;paint-order:fill markers stroke"
         id="rect2171"
         width="38.96875"
         height="11.449"
         x="105.11971"
         y="93.479591" />
    </g>
    <rect
       style="fill:#012169;fill-opacity:1;stroke:none;stroke-width:4.18825;stroke-linecap:round;stroke-linejoin:round;stroke-opacity:1;paint-order:fill markers stroke"
       id="rect1865"
       width="34.960033"
       height="20.729836"
       x="68.242584"
       y="93.387329"
       inkscape:export-filename="/home/raul6174/logo-engsoc-fix.png"
       inkscape:export-xdpi="96"
       inkscape:export-ydpi="96" />
    <rect
       style="fill:#ffffff;fill-opacity:1;stroke:none;stroke-width:2.54159;stroke-linecap:round;stroke-linejoin:round;stroke-opacity:1;paint-order:fill markers stroke"
       id="rect2213"
       width="5.407166"
       height="20.730173"
       x="83.019012"
       y="93.385857"
       inkscape:export-filename="/home/raul6174/logo-engsoc-fix.png"
       inkscape:export-xdpi="96"
       inkscape:export-ydpi="96" />
    <rect
       style="fill:#ffffff;fill-opacity:1;stroke:none;stroke-width:2.77188;stroke-linecap:round;stroke-linejoin:round;stroke-opacity:1;paint-order:fill markers stroke"
       id="rect2535"
       width="34.960033"
       height="5.407166"
       x="68.242577"
       y="100.60384"
       inkscape:export-filename="/home/raul6174/logo-engsoc-fix.png"
       inkscape:export-xdpi="96"
       inkscape:export-ydpi="96" />
    <rect
       style="fill:#ffffff;fill-opacity:1;stroke:none;stroke-width:2.74257;stroke-linecap:round;stroke-linejoin:round;stroke-opacity:1;paint-order:fill markers stroke"
       id="rect2931"
       width="5.0814838"
       height="36.364269"
       x="-66.385635"
       y="163.84753"
       transform="matrix(1,0,0.82166754,0.56996706,0,0)"
       inkscape:export-filename="/home/raul6174/logo-engsoc-fix.png"
       inkscape:export-xdpi="96"
       inkscape:export-ydpi="96" />
    <rect
       style="fill:#ffffff;fill-opacity:1;stroke:none;stroke-width:2.74064;stroke-linecap:round;stroke-linejoin:round;stroke-opacity:1;paint-order:fill markers stroke"
       id="rect3049"
       width="5.0814838"
       height="36.313187"
       x="-238.41656"
       y="164.32832"
       transform="matrix(-1,0,-0.82282335,0.56829723,0,0)"
       inkscape:export-filename="/home/raul6174/logo-engsoc-fix.png"
       inkscape:export-xdpi="96"
       inkscape:export-ydpi="96" />
    <rect
       style="fill:#c8102e;fill-opacity:1;stroke:none;stroke-width:2.26323;stroke-linecap:round;stroke-linejoin:round;stroke-opacity:1;paint-order:fill markers stroke"
       id="rect2653"
       width="34.960033"
       height="3.6047773"
       x="68.242577"
       y="-105.10981"
       transform="scale(1,-1)"
       inkscape:export-filename="/home/raul6174/logo-engsoc-fix.png"
       inkscape:export-xdpi="96"
       inkscape:export-ydpi="96" />
    <rect
       style="fill:#c8102e;fill-opacity:1;stroke:none;stroke-width:2.07521;stroke-linecap:round;stroke-linejoin:round;stroke-opacity:1;paint-order:fill markers stroke"
       id="rect2799"
       width="3.6047773"
       height="20.730173"
       x="83.920204"
       y="93.385857"
       inkscape:export-filename="/home/raul6174/logo-engsoc-fix.png"
       inkscape:export-xdpi="96"
       inkscape:export-ydpi="96" />
    <rect
       style="fill:#c8102e;fill-opacity:1;stroke:none;stroke-width:0.957627;stroke-linecap:round;stroke-linejoin:round;stroke-opacity:1;paint-order:fill markers stroke"
       id="rect3051"
       width="1.775558"
       height="12.688454"
       x="-66.159378"
       y="164.32832"
       transform="matrix(1,0,0.82282335,0.56829723,0,0)"
       inkscape:export-filename="/home/raul6174/logo-engsoc-fix.png"
       inkscape:export-xdpi="96"
       inkscape:export-ydpi="96" />
    <rect
       style="fill:#c8102e;fill-opacity:1;stroke:none;stroke-width:1.06424;stroke-linecap:round;stroke-linejoin:round;stroke-opacity:1;paint-order:fill markers stroke"
       id="rect3161"
       width="1.9732418"
       height="14.101137"
       x="-64.894798"
       y="186.69957"
       transform="matrix(1,0,0.82282335,0.56829723,0,0)"
       inkscape:export-filename="/home/raul6174/logo-engsoc-fix.png"
       inkscape:export-xdpi="96"
       inkscape:export-ydpi="96" />
    <rect
       style="fill:#c8102e;fill-opacity:1;stroke:none;stroke-width:0.899091;stroke-linecap:round;stroke-linejoin:round;stroke-opacity:1;paint-order:fill markers stroke"
       id="rect3163"
       width="1.6670243"
       height="11.912852"
       x="-235.83191"
       y="164.32832"
       transform="matrix(-1,0,-0.82282335,0.56829723,0,0)"
       inkscape:export-filename="/home/raul6174/logo-engsoc-fix.png"
       inkscape:export-xdpi="96"
       inkscape:export-ydpi="96" />
    <rect
       style="fill:#c8102e;fill-opacity:1;stroke:none;stroke-width:0.899091;stroke-linecap:round;stroke-linejoin:round;stroke-opacity:1;paint-order:fill markers stroke"
       id="rect3267"
       width="1.6670243"
       height="11.912852"
       x="-237.60582"
       y="188.72865"
       transform="matrix(-1,0,-0.82282335,0.56829723,0,0)"
       inkscape:export-filename="/home/raul6174/logo-engsoc-fix.png"
       inkscape:export-xdpi="96"
       inkscape:export-ydpi="96" />
    <text
       xml:space="preserve"
       transform="matrix(0.26458333,0,0,0.26458333,0.60920795,3.0673705)"
       id="text11493"
       style="font-style:normal;font-variant:normal;font-weight:bold;font-stretch:normal;font-size:74.6667px;line-height:1.25;font-family:Yrsa;-inkscape-font-specification:'Yrsa Bold';white-space:pre;shape-inside:url(#rect11495);fill:#102a71;fill-opacity:1"
       inkscape:export-filename="/home/raul6174/logo-engsoc-fix.png"
       inkscape:export-xdpi="96"
       inkscape:export-ydpi="96"><tspan
         x="177.15625"
         y="509.08328"
         id="tspan1111">ENG. SOCIETY</tspan></text>
    <path
       id="path28254"
       style="fill:#f5c400;fill-opacity:1;stroke:none;stroke-width:2.36495;stroke-linecap:round;stroke-linejoin:round;stroke-opacity:1;paint-order:fill markers stroke"
       d="m 66.331265,150.73774 v 30.59519 h 38.696985 v -30.59519 z m 0.100053,30.59571 38.596932,23.25929 v -23.25929 z"
       inkscape:export-filename="/home/raul6174/logo-engsoc-fix.png"
       inkscape:export-xdpi="96"
       inkscape:export-ydpi="96" />
    <g
       id="g24720"
       transform="matrix(0.13939956,0,0,0.17215302,38.357623,137.73526)"
       inkscape:export-filename="/home/raul6174/logo-engsoc-fix.png"
       inkscape:export-xdpi="96"
       inkscape:export-ydpi="96">
      <path
         id="path24244"
         style="color:#000000;fill:#ffffff;stroke-width:3.77953;stroke-linecap:round;stroke-linejoin:round;-inkscape-stroke:none;paint-order:fill markers stroke"
         d="m 1192.8809,787.04492 c -3.0199,0.0113 -6.1001,0.12479 -9.2598,0.35156 -33.823,2.43402 -84.4653,20.53299 -130.3223,27.69141 -37.6507,5.87691 -67.48136,2.51433 -93.49216,-2.13281 l -10.25976,27.96484 c -2.31311,6.30803 1.31188,11.83443 8.75,13.1875 26.35086,4.7811 56.64742,8.35591 95.00192,2.36914 45.857,-7.15842 96.4993,-25.25735 130.3223,-27.6914 3.1597,-0.22678 6.2399,-0.34023 9.2598,-0.35157 24.1246,-0.068 44.9763,6.55254 67.6308,15.51758 5.2384,2.07496 11.5122,1.84783 16.5352,-0.59375 2.7568,-1.34086 4.9035,-3.23809 6.2734,-5.42969 1.3699,2.19156 3.5167,4.0889 6.2735,5.42969 5.0228,2.44158 11.2967,2.66871 16.5351,0.59375 22.6545,-8.96504 43.5061,-15.58561 67.6309,-15.51758 3.0198,0.0113 6.1,0.12479 9.2597,0.35157 33.8231,2.43405 84.4653,20.53298 130.3223,27.6914 38.3546,5.98677 68.651,2.41196 95.002,-2.36914 7.4379,-1.35307 11.0629,-6.87947 8.75,-13.1875 l -10.2598,-27.96484 c -26.0109,4.64714 -55.8415,8.00972 -93.4922,2.13281 -45.857,-7.15842 -96.4993,-25.25739 -130.3223,-27.69141 -3.1597,-0.22677 -6.2399,-0.34026 -9.2597,-0.35156 -24.1248,-0.068 -44.9764,6.55254 -67.6309,15.51758 -5.2384,2.07496 -11.5124,1.84782 -16.5351,-0.59375 -2.7568,-1.34082 -4.9036,-3.23813 -6.2735,-5.42969 -1.3699,2.19162 -3.5166,4.08883 -6.2734,5.42969 -5.023,2.44157 -11.2968,2.66871 -16.5352,0.59375 -22.6545,-8.96504 -43.5061,-15.58558 -67.6308,-15.51758 z"
         transform="scale(0.26458333)" />
      <path
         id="path20221"
         style="color:#000000;fill:#102a71;fill-opacity:1;stroke-width:3.77953;stroke-linecap:round;stroke-linejoin:round;-inkscape-stroke:none;paint-order:fill markers stroke"
         d="m 1214.0488,567.54883 c -3.0047,0.008 -6.0776,0.0897 -9.207,0.25976 -33.5055,1.81796 -71.2635,12.45319 -99.5117,15.77539 -23.4784,2.75906 -41.7439,1.21677 -60.5508,-1.28906 -3.6246,-0.48378 -7.7749,0.0799 -11.3125,1.53125 -3.5565,1.4589 -6.1228,3.66281 -6.9883,6.01367 l -76.93162,209.69141 c -2.31308,6.30803 1.31188,11.83443 8.75,13.1875 26.35086,4.7811 56.64732,8.35591 95.00192,2.36914 45.857,-7.15842 96.4993,-25.25739 130.3223,-27.69141 3.1597,-0.22677 6.2399,-0.34022 9.2598,-0.35156 24.1247,-0.068 44.9763,6.55254 67.6308,15.51758 5.2384,2.07496 11.5122,1.84782 16.5352,-0.59375 2.7568,-1.34086 4.9035,-3.23807 6.2734,-5.42969 1.3699,2.19156 3.5167,4.08887 6.2735,5.42969 5.0229,2.44157 11.2967,2.66871 16.5351,0.59375 22.6545,-8.96504 43.5061,-15.58561 67.6309,-15.51758 3.0198,0.0113 6.1,0.12479 9.2597,0.35156 33.823,2.43402 84.4653,20.53299 130.3223,27.69141 38.3546,5.98677 68.6511,2.41196 95.002,-2.36914 7.4381,-1.35307 11.063,-6.87947 8.75,-13.1875 l -76.9317,-209.69141 c -0.8655,-2.35086 -3.4317,-4.55477 -6.9883,-6.01367 -3.5376,-1.45134 -7.6879,-2.01503 -11.3125,-1.53125 -18.8069,2.50583 -37.0743,4.04812 -60.5527,1.28906 -28.2482,-3.3222 -66.0043,-13.95743 -99.5098,-15.77539 -3.1294,-0.17007 -6.2023,-0.2522 -9.207,-0.25976 -24.1134,-0.0529 -44.1536,4.94374 -62.3672,10.31445 -3.6646,1.08085 -6.1957,3.12772 -6.9043,5.49024 -0.7086,-2.36252 -3.2396,-4.40939 -6.9043,-5.49024 -18.2135,-5.37071 -38.2538,-10.36737 -62.3672,-10.31445 z m -1.3535,14.93555 c 15.9836,-0.0378 30.166,3.13391 44.9024,7.30273 l -5.5411,181.33008 c -17.1666,-5.28378 -35.6794,-9.24016 -56.875,-9.17969 h -0.01 c -3.8815,0.0151 -7.8451,0.15404 -11.9043,0.4375 -43.4154,3.03874 -93.1442,20.91683 -130.1836,26.5332 -25.4967,3.86646 -45.9097,2.25229 -65.93746,-0.65039 l 62.16606,-188.89453 c 16.6866,1.64032 35.4115,2.20842 57.3554,-0.42969 34.7414,-4.17637 72.9887,-14.80414 98.9239,-16.24414 2.4264,-0.13228 4.7884,-0.2013 7.1015,-0.20507 z m 141.2481,0 c 2.313,0.004 4.6751,0.0728 7.1015,0.20507 25.9351,1.44 64.1844,12.06777 98.9258,16.24414 21.9439,2.63811 40.6689,2.07001 57.3555,0.42969 l 62.166,188.89453 c -20.0277,2.90268 -40.4428,4.51685 -65.9395,0.65039 -37.0393,-5.61637 -86.7662,-23.49446 -130.1816,-26.5332 -4.0592,-0.28346 -8.0227,-0.42238 -11.9043,-0.4375 h -0.01 c -21.1956,-0.0605 -39.7084,3.89591 -56.875,9.17969 l -5.541,-181.33008 c 14.7363,-4.16882 28.9167,-7.34053 44.9004,-7.30273 z m -142.6153,13.0996 c -3.1332,0.008 -6.3339,0.098 -9.5957,0.28321 -34.9342,1.97291 -74.3896,13.53899 -103.8926,17.14843 -11.2063,1.37197 -21.2944,1.76143 -30.8339,1.51954 l -5.086,17.12109 c 11.3991,0.24945 23.697,-0.23035 37.1446,-1.91602 36.3137,-4.55433 76.3155,-16.13058 103.3769,-17.69531 2.5323,-0.1474 4.997,-0.21887 7.4121,-0.22265 8.504,-0.0227 16.4987,0.86765 24.3223,2.33789 l 1.0566,-16.96875 c -7.5326,-1.02048 -15.4608,-1.62632 -23.9043,-1.60743 z m 143.9844,0 c -8.4435,-0.0189 -16.3737,0.58695 -23.9063,1.60743 l 1.0586,16.96875 c 7.8237,-1.47024 15.8184,-2.36057 24.3223,-2.33789 2.4151,0.004 4.8779,0.0752 7.4102,0.22265 27.0614,1.56473 67.0652,13.14098 103.3789,17.69531 13.4475,1.68567 25.7454,2.16547 37.1445,1.91602 l -5.0879,-17.12109 c -9.5395,0.24189 -19.6257,-0.14757 -30.832,-1.51954 -29.503,-3.60944 -68.9584,-15.17552 -103.8926,-17.14843 -3.2617,-0.1852 -6.4625,-0.27565 -9.5957,-0.28321 z m -147.5371,36.6211 c -3.2995,0.008 -6.6718,0.10462 -10.1074,0.3125 -36.7975,2.18834 -78.4895,15.0213 -109.6328,19.03515 -11.8375,1.52693 -22.4796,1.9578 -32.5293,1.68946 l -5.6661,19.05469 c 12.0303,0.27968 25.0236,-0.25635 39.2422,-2.13477 38.3849,-5.07213 80.6934,-17.94904 109.2364,-19.69141 2.6683,-0.16252 5.2688,-0.24231 7.8125,-0.24609 8.965,-0.0227 17.3895,0.9649 25.6289,2.59766 l 1.1797,-18.83789 c -7.9333,-1.13008 -16.2747,-1.80198 -25.1641,-1.7793 z m 151.0898,0 c -8.8894,-0.0227 -17.2308,0.64922 -25.164,1.7793 l 1.1797,18.83789 c 8.2393,-1.63276 16.6638,-2.62034 25.6289,-2.59766 2.5436,0.004 5.1441,0.0836 7.8125,0.24609 28.543,1.74237 70.8495,14.61928 109.2343,19.69141 14.2186,1.87842 27.2139,2.41445 39.2442,2.13477 l -5.666,-19.05469 c -10.0498,0.26834 -20.6938,-0.16253 -32.5313,-1.68946 -31.1433,-4.01385 -72.8353,-16.84681 -109.6328,-19.03515 -3.4356,-0.20788 -6.8059,-0.30494 -10.1055,-0.3125 z m -155.0429,40.70508 c -3.4848,0.0113 -7.0416,0.12088 -10.67,0.34765 -38.8724,2.44158 -83.0629,16.76566 -116.0468,21.25196 -12.5443,1.70834 -23.8035,2.1892 -34.4278,1.89062 l -6.3457,21.3418 c 12.737,0.30992 26.5059,-0.29129 41.5938,-2.39649 40.7093,-5.68441 85.6021,-20.09846 115.793,-22.04492 2.8233,-0.18142 5.5746,-0.26783 8.2656,-0.27539 9.4753,-0.0265 18.3761,1.07696 27.0879,2.90625 l 1.3125,-21.03711 c -8.3679,-1.25858 -17.1742,-2.00705 -26.5625,-1.98437 z m 158.9961,0 c -9.3884,-0.0227 -18.1947,0.72579 -26.5625,1.98437 l 1.3125,21.03711 c 8.7118,-1.82929 17.6126,-2.93271 27.0878,-2.90625 2.6911,0.008 5.4424,0.094 8.2657,0.27539 30.1908,1.94646 75.0837,16.36051 115.7929,22.04492 15.0879,2.1052 28.8568,2.70641 41.5938,2.39649 l -6.3457,-21.3418 c -10.6243,0.29858 -21.8835,-0.18228 -34.4277,-1.89062 -32.984,-4.4863 -77.1745,-18.81038 -116.0469,-21.25196 -3.6284,-0.22677 -7.1852,-0.33632 -10.6699,-0.34765 z m -163.4141,45.51562 c -3.6888,0.0113 -7.4571,0.13362 -11.3047,0.39063 -41.1931,2.74015 -88.2045,18.83323 -123.2558,23.8789 -13.3342,1.92 -25.2919,2.45943 -36.5586,2.12305 l -7.1543,24.06836 c 13.5307,0.35149 28.1716,-0.32776 44.2421,-2.70508 43.3286,-6.41386 91.1486,-22.65931 123.1915,-24.84766 2.9971,-0.20409 5.914,-0.30103 8.7675,-0.30859 10.0536,-0.0302 19.4873,1.21152 28.7207,3.26758 l 1.4746,-23.64063 c -8.8592,-1.41354 -18.1791,-2.25302 -28.123,-2.22656 z m 167.832,0 c -9.9439,-0.0265 -19.2638,0.81302 -28.123,2.22656 l 1.4746,23.64063 c 9.2334,-2.05606 18.6672,-3.29782 28.7207,-3.26758 2.8535,0.008 5.7704,0.1045 8.7676,0.30859 32.0428,2.18835 79.8609,18.4338 123.1894,24.84766 16.0706,2.37732 30.7135,3.05657 44.2442,2.70508 l -7.1543,-24.06836 c -11.2668,0.33638 -23.2264,-0.20305 -36.5606,-2.12305 -35.0513,-5.04567 -82.0608,-21.13875 -123.2539,-23.8789 -3.8475,-0.25701 -7.6159,-0.37929 -11.3047,-0.39063 z"
         transform="scale(0.26458333)" />
    </g>
    <path
       id="path28444"
       style="fill:#102a71;fill-opacity:1;stroke:none;stroke-width:9.19986;stroke-linecap:round;stroke-linejoin:round;stroke-opacity:1;paint-order:fill markers stroke"
       d="M 396.95703,564.64844 V 683.16211 H 548.12891 V 564.64844 Z m 0,118.51562 v 90.09766 l 150.78125,-90.09766 z"
       transform="scale(0.26458333)"
       inkscape:export-filename="/home/raul6174/logo-engsoc-fix.png"
       inkscape:export-xdpi="96"
       inkscape:export-ydpi="96" />
    <g
       id="g28216"
       transform="matrix(0.19856003,0,0,0.19856003,55.147145,148.83342)"
       inkscape:export-filename="/home/raul6174/logo-engsoc-fix.png"
       inkscape:export-xdpi="96"
       inkscape:export-ydpi="96">
      <circle
         style="fill:none;fill-rule:evenodd;stroke:#f5c400;stroke-width:3.175;stroke-miterlimit:4;stroke-dasharray:none;stroke-opacity:1"
         id="path24754"
         cx="348.33353"
         cy="107.41077"
         r="41.089264" />
      <path
         style="fill:none;stroke:#f5c400;stroke-width:3.175;stroke-linecap:butt;stroke-linejoin:miter;stroke-miterlimit:4;stroke-dasharray:none;stroke-opacity:1"
         d="m 348.33354,66.46834 c 0,27.299757 0,54.59925 0,81.89847"
         id="path26007"
         sodipodi:nodetypes="cc"
         inkscape:original-d="m 348.33354,66.46834 c 2.6e-4,27.299757 2.6e-4,54.59925 0,81.89847"
         inkscape:path-effect="#path-effect26009" />
      <path
         style="fill:none;stroke:#f5c400;stroke-width:3.175;stroke-linecap:butt;stroke-linejoin:miter;stroke-miterlimit:4;stroke-dasharray:none;stroke-opacity:1"
         d="m 389.28277,107.41758 c -27.29975,0 -54.59925,0 -81.89847,0"
         id="path26684"
         sodipodi:nodetypes="cc"
         inkscape:original-d="m 389.28277,107.41758 c -27.29975,2.6e-4 -54.59925,2.6e-4 -81.89847,0"
         inkscape:path-effect="#path-effect26688" />
      <path
         style="fill:none;stroke:#f5c400;stroke-width:3.175;stroke-linecap:butt;stroke-linejoin:miter;stroke-miterlimit:4;stroke-dasharray:none;stroke-opacity:1"
         d="m 348.33354,66.46834 c 10.59754,13.560614 21.19501,27.121135 21.19489,40.77095 -1.3e-4,13.64982 -10.5973,27.3884 -21.19489,41.12752"
         id="path26770"
         sodipodi:nodetypes="ccc"
         inkscape:original-d="m 348.33354,66.46834 c 10.59758,13.560586 21.19505,27.121107 31.79241,40.68156 -10.59736,13.73943 -21.19453,27.47801 -31.79241,41.21691"
         inkscape:path-effect="#path-effect26774" />
      <path
         style="fill:none;stroke:#f5c400;stroke-width:3.175;stroke-linecap:butt;stroke-linejoin:miter;stroke-miterlimit:4;stroke-dasharray:none;stroke-opacity:1"
         d="m 348.33354,66.46834 c -10.59754,13.560614 -21.19501,27.121135 -21.19489,40.77095 1.3e-4,13.64982 10.5973,27.3884 21.19489,41.12752"
         id="path27550"
         sodipodi:nodetypes="ccc"
         inkscape:original-d="m 348.33354,66.46834 c -10.59758,13.560586 -21.19505,27.121107 -31.79241,40.68156 10.59736,13.73943 21.19453,27.47801 31.79241,41.21691"
         inkscape:path-effect="#path-effect27554" />
      <path
         style="fill:none;stroke:#f5c400;stroke-width:3.175;stroke-linecap:butt;stroke-linejoin:miter;stroke-miterlimit:4;stroke-dasharray:none;stroke-opacity:1"
         d="m 382.03876,83.963829 c -11.23616,4.780012 -22.47154,9.559693 -33.69143,9.559788 -11.2199,9.5e-5 -22.4233,-4.779848 -33.62669,-9.559788"
         id="path27556"
         sodipodi:nodetypes="ccc"
         inkscape:original-d="M 382.03876,83.963829 C 370.80274,88.74416 359.56736,93.52384 348.33081,98.303644 337.12738,93.52384 325.92398,88.743898 314.72064,83.963829"
         inkscape:path-effect="#path-effect27560" />
      <path
         style="fill:none;stroke:#f5c400;stroke-width:3.175;stroke-linecap:butt;stroke-linejoin:miter;stroke-miterlimit:4;stroke-dasharray:none;stroke-opacity:1"
         d="m 382.03876,130.63108 c -11.23615,-4.78001 -22.47153,-9.5597 -33.69143,-9.55979 -11.2199,-1e-4 -22.4233,4.77985 -33.62669,9.55979"
         id="path27699"
         sodipodi:nodetypes="ccc"
         inkscape:original-d="m 382.03876,130.63108 c -11.23602,-4.78033 -22.4714,-9.56001 -33.70795,-14.33982 -11.20343,4.77981 -22.40683,9.55975 -33.61017,14.33982"
         inkscape:path-effect="#path-effect27703" />
    </g>
    <rect
       style="fill:#102a71;fill-opacity:1;stroke:none;stroke-width:0.69758;stroke-linecap:round;stroke-linejoin:round;stroke-miterlimit:4;stroke-dasharray:none;stroke-opacity:1;paint-order:fill markers stroke"
       id="rect29035"
       width="117.54027"
       height="2.7066875"
       x="46.229866"
       y="115.19068"
       inkscape:export-filename="/home/raul6174/logo-engsoc-fix.png"
       inkscape:export-xdpi="96"
       inkscape:export-ydpi="96" />
    <rect
       style="fill:#102a71;fill-opacity:1;stroke:none;stroke-width:0.69758;stroke-linecap:round;stroke-linejoin:round;stroke-miterlimit:4;stroke-dasharray:none;stroke-opacity:1;paint-order:fill markers stroke"
       id="rect29403"
       width="117.54027"
       height="2.7066875"
       x="46.229866"
       y="147.99881"
       inkscape:export-filename="/home/raul6174/logo-engsoc-fix.png"
       inkscape:export-xdpi="96"
       inkscape:export-ydpi="96" />
    <text
       xml:space="preserve"
       transform="scale(0.26458333)"
       id="text32755"
       style="font-size:64px;line-height:1.25;font-family:NTR;-inkscape-font-specification:NTR;white-space:pre;shape-inside:url(#rect32757)" />
    <rect
       style="fill:#102a71;fill-opacity:1;stroke:none;stroke-width:2.3273;stroke-linecap:round;stroke-linejoin:round;stroke-miterlimit:4;stroke-dasharray:none;stroke-opacity:1;paint-order:fill markers stroke"
       id="rect34443"
       width="40.555168"
       height="2.2523212"
       x="105.02969"
       y="180.14174"
       inkscape:export-filename="/home/raul6174/logo-engsoc-fix.png"
       inkscape:export-xdpi="96"
       inkscape:export-ydpi="96" />
  </g>
</svg>
